<svg id="Layer_1" data-name="Layer 1" xmlns="http://www.w3.org/2000/svg" xmlns:xlink="http://www.w3.org/1999/xlink" viewBox="0 0 80.97 83"><defs><style>.cls-1{fill:none;}.cls-2{fill:#ede8e4;}.cls-3{fill:url(#linear-gradient);}.cls-4{fill:url(#linear-gradient-2);}.cls-5{fill:url(#linear-gradient-3);}.cls-6{fill:url(#linear-gradient-4);}.cls-7{fill:url(#linear-gradient-5);}.cls-8{fill:url(#linear-gradient-6);}.cls-9{fill:url(#linear-gradient-7);}.cls-10{fill:url(#linear-gradient-8);}.cls-11{fill:url(#linear-gradient-9);}.cls-12{fill:url(#linear-gradient-10);}.cls-13{fill:url(#linear-gradient-11);}.cls-14{fill:url(#linear-gradient-12);}.cls-15{fill:url(#linear-gradient-13);}.cls-16{fill:url(#linear-gradient-14);}.cls-17{fill:url(#linear-gradient-15);}.cls-18{fill:url(#linear-gradient-16);}.cls-19{fill:url(#linear-gradient-17);}.cls-20{fill:url(#linear-gradient-18);}.cls-21{fill:url(#linear-gradient-19);}.cls-22{fill:url(#linear-gradient-20);}.cls-23{fill:url(#linear-gradient-21);}.cls-24{fill:url(#linear-gradient-22);}.cls-25{fill:url(#linear-gradient-23);}.cls-26{fill:url(#linear-gradient-24);}.cls-27{fill:url(#linear-gradient-25);}.cls-28{fill:url(#linear-gradient-26);}.cls-29{fill:url(#linear-gradient-27);}.cls-30{fill:url(#linear-gradient-28);}.cls-31{fill:url(#linear-gradient-29);}.cls-32{fill:#f8f4ec;}</style><linearGradient id="linear-gradient" x1="97.33" y1="135.36" x2="99.46" y2="135.36" gradientUnits="userSpaceOnUse"><stop offset="0.01" stop-color="#e2ca7e"/><stop offset="0.24" stop-color="#ddc277"/><stop offset="0.58" stop-color="#cdad65"/><stop offset="1" stop-color="#b58a48"/></linearGradient><linearGradient id="linear-gradient-2" x1="95.77" y1="135.69" x2="100.51" y2="135.69" xlink:href="#linear-gradient"/><linearGradient id="linear-gradient-3" x1="21.94" y1="2.54" x2="21.95" y2="2.54" xlink:href="#linear-gradient"/><linearGradient id="linear-gradient-4" x1="76.31" y1="58.2" x2="76.71" y2="58.2" xlink:href="#linear-gradient"/><linearGradient id="linear-gradient-5" x1="124.86" y1="53.07" x2="87.34" y2="69.4" xlink:href="#linear-gradient"/><linearGradient id="linear-gradient-6" x1="96.96" y1="104.34" x2="93.58" y2="111.89" xlink:href="#linear-gradient"/><linearGradient id="linear-gradient-7" x1="108.03" y1="86.68" x2="110.4" y2="61.96" xlink:href="#linear-gradient"/><linearGradient id="linear-gradient-8" x1="76.18" y1="102.01" x2="91.65" y2="102.01" xlink:href="#linear-gradient"/><linearGradient id="linear-gradient-9" x1="90.6" y1="98" x2="91.31" y2="98" xlink:href="#linear-gradient"/><linearGradient id="linear-gradient-10" x1="76.83" y1="120.73" x2="77.51" y2="110.25" xlink:href="#linear-gradient"/><linearGradient id="linear-gradient-11" x1="92.24" y1="118.41" x2="116.02" y2="118.41" xlink:href="#linear-gradient"/><linearGradient id="linear-gradient-12" x1="97.91" y1="128.32" x2="108.39" y2="128.32" xlink:href="#linear-gradient"/><linearGradient id="linear-gradient-13" x1="74.11" y1="119.78" x2="83.41" y2="119.78" xlink:href="#linear-gradient"/><linearGradient id="linear-gradient-14" x1="65.76" y1="85.08" x2="90.59" y2="85.08" xlink:href="#linear-gradient"/><linearGradient id="linear-gradient-15" x1="66.99" y1="104.02" x2="84.33" y2="104.02" xlink:href="#linear-gradient"/><linearGradient id="linear-gradient-16" x1="71.16" y1="85.19" x2="71.77" y2="85.19" xlink:href="#linear-gradient"/><linearGradient id="linear-gradient-17" x1="71.66" y1="89.11" x2="67.94" y2="67.59" xlink:href="#linear-gradient"/><linearGradient id="linear-gradient-18" x1="60.09" y1="59.01" x2="91.87" y2="59.01" xlink:href="#linear-gradient"/><linearGradient id="linear-gradient-19" x1="55.41" y1="69.77" x2="100.4" y2="69.77" xlink:href="#linear-gradient"/><linearGradient id="linear-gradient-20" x1="63.14" y1="68.56" x2="76.31" y2="68.56" xlink:href="#linear-gradient"/><linearGradient id="linear-gradient-21" x1="96.85" y1="130.46" x2="108.45" y2="130.46" xlink:href="#linear-gradient"/><linearGradient id="linear-gradient-22" x1="99.75" y1="129.71" x2="107.79" y2="129.71" xlink:href="#linear-gradient"/><linearGradient id="linear-gradient-23" x1="96.36" y1="124.68" x2="112.33" y2="124.68" xlink:href="#linear-gradient"/><linearGradient id="linear-gradient-24" x1="110.54" y1="121.65" x2="110.89" y2="121.65" xlink:href="#linear-gradient"/><linearGradient id="linear-gradient-25" x1="122.93" y1="63.09" x2="115.91" y2="70.86" gradientUnits="userSpaceOnUse"><stop offset="0.01" stop-color="#846230" stop-opacity="0.5"/><stop offset="0.52" stop-color="#9f783d" stop-opacity="0.23"/><stop offset="1" stop-color="#b58a48" stop-opacity="0"/></linearGradient><linearGradient id="linear-gradient-26" x1="64.96" y1="103.78" x2="74.92" y2="103.78" xlink:href="#linear-gradient-25"/><linearGradient id="linear-gradient-27" x1="57.62" y1="87.22" x2="86.88" y2="87.22" xlink:href="#linear-gradient-25"/><linearGradient id="linear-gradient-28" x1="55.41" y1="69.78" x2="100.49" y2="69.78" gradientUnits="userSpaceOnUse"><stop offset="0.01" stop-color="#ede8e4" stop-opacity="0.5"/><stop offset="0.11" stop-color="#e7ded3" stop-opacity="0.45"/><stop offset="0.72" stop-color="#c3a26f" stop-opacity="0.13"/><stop offset="1" stop-color="#b58a48" stop-opacity="0"/></linearGradient><linearGradient id="linear-gradient-29" x1="71.27" y1="65.27" x2="131.61" y2="65.27" xlink:href="#linear-gradient-25"/></defs><path class="cls-1" d="M98.5,137l-.08,0,.06,0Z" transform="translate(-53 -54.99)"/><path class="cls-3" d="M99.11,135.68a3.61,3.61,0,0,1-.3.25,1.56,1.56,0,0,1-.28.16,1.08,1.08,0,0,1-.44,0,2.74,2.74,0,0,1-.5-.08,1.23,1.23,0,0,1-.26-.12,1.74,1.74,0,0,0,1.37-.69c.29-.43-.27-.52-.27-.52.24,0,.48-.08.71-.14l.15.12a.58.58,0,0,1,.17.34A.81.81,0,0,1,99.11,135.68Z" transform="translate(-53 -54.99)"/><path class="cls-4" d="M100.29,135.37A5.19,5.19,0,0,1,98.48,137a1.43,1.43,0,0,1-1,0,3.69,3.69,0,0,1-.94-.5,3.34,3.34,0,0,1-.75-.65,5.79,5.79,0,0,0,1.5.07l.32.11.37.11a1.11,1.11,0,0,0,.62.05.73.73,0,0,0,.31-.17,2.72,2.72,0,0,0,.61-.61.64.64,0,0,0,.13-.29.55.55,0,0,0-.09-.3,1.61,1.61,0,0,0-.21-.3,6,6,0,0,0,.85-.26.73.73,0,0,1,.28.27A.86.86,0,0,1,100.29,135.37Z" transform="translate(-53 -54.99)"/><polyline class="cls-5" points="21.95 2.54 21.95 2.54 21.95 2.54"/><path class="cls-6" d="M76.71,58.3l-.4-.19" transform="translate(-53 -54.99)"/><path class="cls-7" d="M132.15,62.2a11.39,11.39,0,0,1-2.56,3.23c-1.86,1.79-4,3.58-6.92,3.44a28.05,28.05,0,0,0,3.2-2.11,11.14,11.14,0,0,0,3.26-3.51,3.6,3.6,0,0,0,.39-2.73,2.25,2.25,0,0,0-2.2-1.48l-2,.78q-3.93,1.51-7.83,3.16h0c-2.09,1.48-4.92,3.36-8.38,5.34-6.52,3.74-13.9,7.29-21.42,8.3-6.11.83-15.94-.72-17.92-7.78a7.62,7.62,0,0,1,.72-5.62,8.34,8.34,0,0,1,1.1-1.59c1.71-1.94,4.21-3.09,5.19-2.33a5.33,5.33,0,0,0-3.53,6.77c2.74,7.07,11.45,5.75,17.1,3.8a127.89,127.89,0,0,0,23.42-11c4.32-2.53,9.75-5,14.8-3.37C131.33,56.42,133.54,59.2,132.15,62.2Z" transform="translate(-53 -54.99)"/><path class="cls-8" d="M100.43,104.69h-.37A6.77,6.77,0,0,0,95.88,106,4.82,4.82,0,0,0,94,110.29a5.55,5.55,0,0,0,.44,1.49,4,4,0,0,0,1.21,1.68,2.39,2.39,0,0,0,1,.43,6.53,6.53,0,0,1-1.93-.2h0a7.09,7.09,0,0,1-.56-.76,5.37,5.37,0,0,1-.41-5.33,5.94,5.94,0,0,0-.74,3.74,5.76,5.76,0,0,0,.59,1.9c-.13-.08-.25-.15-.37-.24a4.48,4.48,0,0,1-1.78-2.91h0a5.39,5.39,0,0,1,0-1.92h0a5,5,0,0,1,.43-1.28,6.36,6.36,0,0,1,5.64-3.22A4.28,4.28,0,0,1,100.43,104.69Z" transform="translate(-53 -54.99)"/><path class="cls-9" d="M125.27,59.82A9.58,9.58,0,0,0,123.58,63c-.35,1-.68,2-1,3A65.71,65.71,0,0,0,120,79.59c-1.27,10.33-1,23.37-7.81,31.8-3.76,4.66-10.48,8-16.44,5.66a7.39,7.39,0,0,1-4.35-4.75,7.25,7.25,0,0,1-.24-1.3,7.56,7.56,0,0,1,.28-2.84,5.44,5.44,0,0,0,0,1.93A4.48,4.48,0,0,0,93.21,113c.12.09.24.16.37.24a4.53,4.53,0,0,0,1.12.45,6.53,6.53,0,0,0,1.93.2,1.79,1.79,0,0,0,1-.11,8.79,8.79,0,0,0,.89-.19,12.48,12.48,0,0,0,6.32-4s2.89-2.83,3.75-5.71l.06-.22,0-.13a.14.14,0,0,0,0-.06c2.4-8.65,3.49-17.61,4.29-26.55l.05-.55A43.78,43.78,0,0,1,114,69.7a12.1,12.1,0,0,1,2-4.55,6.38,6.38,0,0,1,4.19-2.5,7.06,7.06,0,0,0-6,4.16,21.66,21.66,0,0,0-1.77,7.27L112,78.32c-.52,4.21-1.06,8.4-1.67,12.52-.44,3.4-1,6.79-1.71,10.15a16,16,0,0,1-1.2,3.85,14,14,0,0,0,.54-2.73c.13,0,1.55-13,1.55-13l.84-6.91L111.71,71a10.18,10.18,0,0,1,2.9-5.65A17.81,17.81,0,0,1,117.44,63Q121.34,61.33,125.27,59.82Z" transform="translate(-53 -54.99)"/><path class="cls-10" d="M91.54,104.91a19.13,19.13,0,0,1-3.79,9.76,7.13,7.13,0,0,1-2.09,2,21.7,21.7,0,0,0,1.06-5,6.86,6.86,0,0,0,1.16-1.53c.08-.14.15-.29.22-.43a17.63,17.63,0,0,0,1.24-5.91,12.08,12.08,0,0,0-.27-1.9c-.85-3.85-3.47-7.15-6.41-9.8a39.64,39.64,0,0,0-6.48-4.72h0l2.15.83,1.06.42c1.43.57,2.84,1.17,4.21,1.88l.31.16.32.18.38.2.71.42.19.12.33.21.25.17c.39.26.77.54,1.14.82l.17.14.45.37.49.42.19.18.23.22.12.12a.8.8,0,0,1,.13.13l.21.22h0l.2.2c.3.33.59.68.85,1q.17.41.3.81a0,0,0,0,1,0,0c.35,1.17.64,2.41.7,2.67v0c.06.3.11.59.15.89A18.7,18.7,0,0,1,91.54,104.91Z" transform="translate(-53 -54.99)"/><path class="cls-11" d="M91.31,99.34c0-.2-.35-1.48-.71-2.69A20.14,20.14,0,0,1,91.31,99.34Z" transform="translate(-53 -54.99)"/><path class="cls-12" d="M90.85,116.77A12.49,12.49,0,0,0,86.43,120a8.82,8.82,0,0,0-2.17,5c-.05.62,0,1.46-.41,1.53a1.09,1.09,0,0,1-.31,0,2.43,2.43,0,0,1-1-.17h0A6.88,6.88,0,0,1,80,124.58a27.83,27.83,0,0,1-3.6-4.35,28.7,28.7,0,0,1-1.69-2.89,27.84,27.84,0,0,1-1.45-3.42c-.26-.75-.49-1.52-.68-2.29A17.47,17.47,0,0,0,74.05,113l.07-.08v.13c.25.22.51.43.77.64a3,3,0,0,1,0-.42,19.86,19.86,0,0,1-4.19-4.91,34,34,0,0,1-4.06-10.77c-.51-2.4-.84-5,0-7.23-.53-.2-1-.44-1.58-.61a37,37,0,0,0,.64,8.91c.52,3.16,1.16,6.29,2,9.38.46,1.7,1,3.39,1.53,5,.51,1.5,1.07,3,1.68,4.45.54,1.27,1.11,2.53,1.74,3.77.75,1.49,1.56,3,2.44,4.38a47.86,47.86,0,0,0,6.4,8.24,24.82,24.82,0,0,0,3.33,2.94c1.21.43,2.52-.68,2.83-1.93a8,8,0,0,0-.38-3.81,18.84,18.84,0,0,1-.44-7.83A9.89,9.89,0,0,1,90.85,116.77ZM87,133.57a1.75,1.75,0,0,1-1.68,2,2.79,2.79,0,0,1-1.36-.48,12.57,12.57,0,0,1-2-1.63,33.57,33.57,0,0,1-4.54-5.34c-.51-.69-1-1.4-1.48-2.12l.07,0,.18.22.08.09c.37.61.75,1.21,1.15,1.79a28.32,28.32,0,0,0,2.53,3c1.49,1.55,3.34,2.95,5.48,3.11C86.05,134.26,86.76,134.16,87,133.57Z" transform="translate(-53 -54.99)"/><path class="cls-13" d="M115.55,117.08a6.14,6.14,0,0,1-1.67,1.58,28,28,0,0,1-11.51,4.81c-2.35.4-4.91.46-6.94-.79-1.09-.67-2-1.71-3.19-2.33a21.07,21.07,0,0,0,5.89,1.29,18.18,18.18,0,0,0,4.63-.62c3.57-.83,7.17-2,10-4.38a2.32,2.32,0,0,0,1-1.42,1.34,1.34,0,0,0-1.76-1.31,3.94,3.94,0,0,0,.54-.81c1.32.18,2.87.54,3.35,1.78A2.48,2.48,0,0,1,115.55,117.08Z" transform="translate(-53 -54.99)"/><path class="cls-14" d="M108.38,127.91a.36.36,0,0,0,0-.09l-.1.06a5.47,5.47,0,0,1-.45.51,5.83,5.83,0,0,1-2.52.73l-.39,0a10.17,10.17,0,0,1-2.06-.16c-.19,0-.46,0-.83-.06a9.26,9.26,0,0,1-4.08-1.2,10.53,10.53,0,0,0,3.63,0c.3.08.6.14.9.19a12.21,12.21,0,0,0,3.67.08,4.68,4.68,0,0,0,1.73-.51.69.69,0,0,1,.32,0A.34.34,0,0,1,108.38,127.91Z" transform="translate(-53 -54.99)"/><path class="cls-15" d="M83.41,126.49a3.91,3.91,0,0,1-.83-.15h0a5.57,5.57,0,0,1-1.87-1.42,34.2,34.2,0,0,1-3.83-4.82c-.35-.54-.69-1.09-1-1.65l-.33-.58a9.77,9.77,0,0,1-1.42-4.8c.25.22.51.43.77.64-.12,1.67.82,3.28,1.75,4.71a1.74,1.74,0,0,0,.11.18h0c.28.43.56.87.84,1.29A37.73,37.73,0,0,0,82,125.55,3.09,3.09,0,0,0,83.41,126.49Z" transform="translate(-53 -54.99)"/><path class="cls-16" d="M90.59,96.63q-.14-.41-.3-.81c-.26-.35-.55-.7-.85-1l-.2-.2h0L89,94.37a.8.8,0,0,0-.13-.13l-.12-.12-.23-.22-.19-.18-.49-.42-.45-.37-.17-.14c-.37-.28-.75-.56-1.14-.82l-.25-.17-.33-.21-.19-.12-.71-.42-.38-.2-.32-.18-.31-.16c-1.37-.71-2.78-1.31-4.21-1.88l-1.06-.42-2.15-.83h0c-2.87-1.82-5.7-3.65-7.7-6.34a14.11,14.11,0,0,1-2.7-7.3.2.2,0,0,1,.38-.08,14.09,14.09,0,0,0,1.55,2.82,21.32,21.32,0,0,0,2.13,2.78c2.63,2.8,6.35,4.22,9.48,5.86h0A18.65,18.65,0,0,1,88.92,93c.31.51.58,1,.84,1.56A7.6,7.6,0,0,1,90.59,96.63Z" transform="translate(-53 -54.99)"/><path class="cls-17" d="M84.33,113a13.37,13.37,0,0,1-.87,4.15,11.46,11.46,0,0,1-7.26-2.78,20.57,20.57,0,0,1-4.68-5.92h0l-.37-.68A35.18,35.18,0,0,1,67,93.07c-.05-.88,0-1.81.38-2.2h0a45.06,45.06,0,0,0,6.33,16.31,14.6,14.6,0,0,0,1.4,1.64,14.75,14.75,0,0,0,8.13,4.29A5,5,0,0,0,84.33,113Z" transform="translate(-53 -54.99)"/><path class="cls-18" d="M71.77,85.38,71.16,85C71.37,85.12,71.57,85.25,71.77,85.38Z" transform="translate(-53 -54.99)"/><path class="cls-19" d="M86.81,110c0,.55,0,1.09-.09,1.64a21.7,21.7,0,0,1-1.06,5,3.77,3.77,0,0,1-1.21.45,13.1,13.1,0,0,0,.79-4.39,14.46,14.46,0,0,0-.07-1.86c0-.33-.08-.67-.13-1a20.43,20.43,0,0,0-.61-2.58,27.07,27.07,0,0,0-5.51-9.63c-1.88-2-5.23-4-12-7.92a25.14,25.14,0,0,1-4.49-3.28,24.55,24.55,0,0,1-3-3.33,18.5,18.5,0,0,1-1.69-5.23c-.79-5.44,1.9-10.84,5.45-15a17.49,17.49,0,0,1,5.52-4.61l.18-.08a9.27,9.27,0,0,1,4.2-.9,7.3,7.3,0,0,1,1.54.2l.22.08a9.25,9.25,0,0,0-1.66.1l-.37.06a6,6,0,0,0-3.24.63l-.46.2a14.44,14.44,0,0,0-1.47.74A11.74,11.74,0,0,0,62.32,68a16.13,16.13,0,0,0,1.62,8.7h0l0,0s0,0,0,0l0,.06.06.12.05.09h0s0,.1.08.16a1.5,1.5,0,0,1,.09.18l.06.09a1.55,1.55,0,0,0,.12.22,20.79,20.79,0,0,0,1.2,1.9c.25.35.5.69.77,1A29.12,29.12,0,0,0,73,86.26a43.66,43.66,0,0,1,7.15,5.93l.39.43a25.91,25.91,0,0,1,6.22,15.72l0,.68C86.82,109.36,86.82,109.69,86.81,110Z" transform="translate(-53 -54.99)"/><path class="cls-20" d="M91.87,62.9c-.87-.1-1.73-.24-2.58-.41a60,60,0,0,0-7.09-3.74,24.79,24.79,0,0,0-7.72-2,10.36,10.36,0,0,0-5,0,19.83,19.83,0,0,0-3,.39,14.62,14.62,0,0,0-6.48,3.06,14.79,14.79,0,0,1,4.11-3.32A16,16,0,0,1,70,55.26,25.09,25.09,0,0,1,86,59,64.08,64.08,0,0,0,91.87,62.9Z" transform="translate(-53 -54.99)"/><path class="cls-21" d="M97.22,64.16a12,12,0,0,1-4.59-.91l-.14-.06-.62-.29c-.87-.1-1.73-.24-2.58-.41a28.37,28.37,0,0,1-5.48-1.73c-2.52-1.1-4.88-2.55-7.47-3.48a15.14,15.14,0,0,0-1.86-.53,10.36,10.36,0,0,0-5,0,19.83,19.83,0,0,0-3,.39,14.62,14.62,0,0,0-6.48,3.06h0A8.94,8.94,0,0,0,57.88,63a15.28,15.28,0,0,0-2.3,6.2,18.26,18.26,0,0,0,2.06,11.11,25.33,25.33,0,0,0,1.81,2.77,18.5,18.5,0,0,1-1.69-5.23c-.79-5.44,1.9-10.84,5.45-15a17.49,17.49,0,0,1,5.52-4.61l.18-.08a9.27,9.27,0,0,1,4.2-.9,7.3,7.3,0,0,1,1.54.2l.29.08h-.07c.49.17,1,.37,1.44.58l.55.07-.15.12c1.38.65,2.71,1.43,4,2.19a40.45,40.45,0,0,0,9.49,4.33,15.41,15.41,0,0,0,10.17-.45A9.13,9.13,0,0,0,97.22,64.16ZM75.73,57.81a8.11,8.11,0,0,0-.78-.28,8.28,8.28,0,0,1,1,.09Z" transform="translate(-53 -54.99)"/><path class="cls-22" d="M76.31,58.11a10.32,10.32,0,0,0-6.42,1.6,11.52,11.52,0,0,0-2.57,2.2A14.76,14.76,0,0,0,64,71.84a22,22,0,0,0,1.67,7.75,20.79,20.79,0,0,1-1.2-1.9,1.55,1.55,0,0,1-.12-.22l-.06-.09a1.5,1.5,0,0,0-.09-.18c0-.06-.06-.11-.08-.16h0l-.05-.09L64,76.82l0-.06s0,0,0,0l0,0h0q-.13-.45-.24-.9a18.63,18.63,0,0,1-.13-8.53A13.37,13.37,0,0,1,67.93,60a10.38,10.38,0,0,1,1.49-1,10.78,10.78,0,0,1,3.42-1.27,3.2,3.2,0,0,1,.42.1l-.05-.16a9.25,9.25,0,0,1,1.66-.1C75.36,57.7,75.84,57.9,76.31,58.11Z" transform="translate(-53 -54.99)"/><path class="cls-23" d="M108.45,128.38a3,3,0,0,1-.49,1.24,6.79,6.79,0,0,1-.92,1.26A5.09,5.09,0,0,1,105.2,132a11.74,11.74,0,0,1-1.56.48l-.16-.2-.48.07.3.21c-.43.1-.87.19-1.31.26a10.76,10.76,0,0,1-4.38-.1,2.23,2.23,0,0,1-.76-1,10.73,10.73,0,0,0,7.81-1.33,9.34,9.34,0,0,0,.91-.41,8.79,8.79,0,0,0,2.22-1.65l.43-.28a.71.71,0,0,0,.15-.15s0,0,0,0A1.08,1.08,0,0,1,108.45,128.38Z" transform="translate(-53 -54.99)"/><path class="cls-24" d="M105.57,130l.11-.31a11.76,11.76,0,0,1-1,.72,8.63,8.63,0,0,1-4.21.51c-.29,0-.62-.14-.7-.41a14.85,14.85,0,0,0,4-.81,3.56,3.56,0,0,0,1.18-.6l.39,0a5.83,5.83,0,0,0,2.52-.73A8.79,8.79,0,0,1,105.57,130Z" transform="translate(-53 -54.99)"/><path class="cls-25" d="M112.33,122.89h0a1.79,1.79,0,0,1-.09.57,3.78,3.78,0,0,1-1.91,2,17.92,17.92,0,0,1-5.62,1.78c-.76.14-1.53.27-2.3.35l-.27,0s-.23,0-.6.1a10.53,10.53,0,0,1-3.63,0,2.79,2.79,0,0,1-.6-.47,2.75,2.75,0,0,0-.19-.28l-.76-1.17a9.3,9.3,0,0,0,.92.16,19.65,19.65,0,0,0,8.28-1,16.77,16.77,0,0,0,4.81-2.19,1.26,1.26,0,0,0,.54-.63.5.5,0,0,0,0-.36.38.38,0,0,0-.35-.27S111.88,121.07,112.33,122.89Z" transform="translate(-53 -54.99)"/><path class="cls-26" d="M110.89,121.79l-.35-.27A.38.38,0,0,1,110.89,121.79Z" transform="translate(-53 -54.99)"/><path class="cls-27" d="M125.17,60a9.65,9.65,0,0,0-1.68,3.17c-.35,1-.67,2-1,3q-.9,3-1.52,6c-1.12,0-4.22.54-8,4.84v0l0-.54a43.09,43.09,0,0,1,1-6.62,12,12,0,0,1,2-4.51,6.29,6.29,0,0,1,4.16-2.48,7,7,0,0,0-5.91,4.13,21.36,21.36,0,0,0-1.75,7.21c-.16,1.33-.32,2.66-.49,4-.45.59-.92,1.23-1.39,1.93l1.09-9a10.07,10.07,0,0,1,2.88-5.61A17.66,17.66,0,0,1,117,63.38l.4-.28h0Q121.27,61.48,125.17,60Z" transform="translate(-53 -54.99)"/><path class="cls-28" d="M74.92,117.76a61.4,61.4,0,0,1-5.46-3.87l-.32-.93q-.84-2.47-1.51-5c-.82-3.06-1.46-6.18-2-9.31A37.51,37.51,0,0,1,65,89.8c.55.17,1,.4,1.57.6-.79,2.24-.46,4.79,0,7.18a33.4,33.4,0,0,0,4,10.68,20,20,0,0,0,4.16,4.88,3.05,3.05,0,0,0,0,.41c-.26-.2-.52-.41-.77-.63v-.12l-.06.07a17.27,17.27,0,0,1-1.46-1.38c.19.77.42,1.53.68,2.28a29.72,29.72,0,0,0,1.44,3.39Z" transform="translate(-53 -54.99)"/><path class="cls-29" d="M86.87,110.12c0,.55,0,1.1-.09,1.64a21.75,21.75,0,0,1-1.06,5,4,4,0,0,1-1.22.45,12.88,12.88,0,0,0,.8-4.4,14.63,14.63,0,0,0-.08-1.87c0-.33-.07-.66-.13-1a21.74,21.74,0,0,0-.6-2.6A27.28,27.28,0,0,0,79,97.7c-1.89-2-5.25-4-12-7.94a25.14,25.14,0,0,1-4.49-3.28,22.7,22.7,0,0,1-1.82-1.85c-.43-.48-.84-1-1.22-1.49a18.8,18.8,0,0,1-1.7-5.24c-.59-4.06.76-8.09,3-11.62a29.67,29.67,0,0,1,2.52-3.43,17.54,17.54,0,0,1,5.52-4.63l.19-.08a9.3,9.3,0,0,1,4.2-.9,7.22,7.22,0,0,1,1.54.2l.23.08a9.31,9.31,0,0,0-1.67.1l-.37.06a5.94,5.94,0,0,0-3.25.64l-.45.19a15.62,15.62,0,0,0-1.47.75A11.7,11.7,0,0,0,62.34,68,16.11,16.11,0,0,0,64,76.7h0l0,.05a0,0,0,0,0,0,0l0,.06a.61.61,0,0,1,0,.12l0,.09h0c0,.05,0,.1.08.16a1.5,1.5,0,0,1,.09.18.41.41,0,0,1,0,.09,1.59,1.59,0,0,0,.13.22,20.75,20.75,0,0,0,1.2,1.91c.25.35.51.69.77,1a24.86,24.86,0,0,0,5.27,4.73h0l1.29.91a43.45,43.45,0,0,1,7.17,5.94l.39.43a25.94,25.94,0,0,1,6.23,15.74l0,.7C86.88,109.45,86.88,109.79,86.87,110.12Z" transform="translate(-53 -54.99)"/><path class="cls-30" d="M97.3,64.16a12.06,12.06,0,0,1-4.6-.91l-.13-.06c-.22-.09-.43-.19-.63-.29-.87-.1-1.73-.24-2.59-.41a28.4,28.4,0,0,1-5.48-1.74c-2.53-1.09-4.9-2.55-7.49-3.48a14.8,14.8,0,0,0-1.87-.53,10.36,10.36,0,0,0-5,0,19.79,19.79,0,0,0-3,.39c-.48.11-1,.23-1.45.38a13.84,13.84,0,0,0-5,2.68h0A8.86,8.86,0,0,0,57.88,63a15.37,15.37,0,0,0-2.3,6.21,18.42,18.42,0,0,0,2.06,11.14,24.92,24.92,0,0,0,1.82,2.77,18.8,18.8,0,0,1-1.7-5.24c-.59-4.06.76-8.09,3-11.62a29.67,29.67,0,0,1,2.52-3.43,17.54,17.54,0,0,1,5.52-4.63l.19-.08a9.3,9.3,0,0,1,4.2-.9,7.22,7.22,0,0,1,1.54.2l.3.08h-.07c.49.17,1,.37,1.44.58a5.21,5.21,0,0,1,.55.08l-.15.11c1.38.65,2.72,1.43,4,2.2a40,40,0,0,0,9.51,4.33,15.41,15.41,0,0,0,10.19-.44A9.45,9.45,0,0,0,97.3,64.16ZM75.77,57.8a8.11,8.11,0,0,0-.78-.28,8.28,8.28,0,0,1,1,.09Z" transform="translate(-53 -54.99)"/><path class="cls-31" d="M130.8,59a5.75,5.75,0,0,0-3.47-2,9.79,9.79,0,0,0-4,.3,30.41,30.41,0,0,0-7.47,3.22A81.51,81.51,0,0,0,109,65.08c-1.11.81-2.27,1.64-3.48,2.4s-2.46,1.43-3.71,2.08a43.22,43.22,0,0,1-16.26,4.72,15.58,15.58,0,0,1-8.41-1.65,10.32,10.32,0,0,1-4.9-6.72,12.78,12.78,0,0,0,2.13,3.51,9.27,9.27,0,0,0,3.22,2.34,15.36,15.36,0,0,0,7.85,1,38.17,38.17,0,0,0,7.92-1.81,52.36,52.36,0,0,0,7.54-3.14c1.23-.61,2.44-1.25,3.59-2s2.26-1.5,3.42-2.28a64.48,64.48,0,0,1,7.24-4.34,28.13,28.13,0,0,1,8-2.81,10.7,10.7,0,0,1,4.29.14A5.56,5.56,0,0,1,130.8,59Z" transform="translate(-53 -54.99)"/></svg>